<svg width="35" height="35" viewBox="0 0 35 35" fill="none" xmlns="http://www.w3.org/2000/svg">
<g clip-path="url(#clip0_91_371)">
<path d="M21.459 12.6416L17.9557 15.9009L14.7051 9.3439L16.3873 5.57265C16.8248 4.80703 17.5073 4.81578 17.9338 5.57265L21.459 12.6416Z" fill="#FFA000"/>
<path d="M14.7058 9.34399L17.9564 15.901L4.86426 28.0799L14.7058 9.34399Z" fill="#F57F17"/>
<path d="M25.2911 7.65951C25.9168 7.05795 26.5643 7.26357 26.7294 8.11561L30.1375 27.9179L18.8413 34.6992C18.4475 34.9179 17.3975 35.012 17.3975 35.012C17.3975 35.012 16.4416 34.8983 16.0774 34.6839L4.86426 28.0798L25.2911 7.65951Z" fill="#FFCA28"/>
<path d="M14.7057 9.34386L4.86523 28.0798L9.24789 0.697768C9.40977 -0.155357 9.89539 -0.237388 10.3285 0.515112L14.7057 9.34386Z" fill="#FFA000"/>
</g>
<defs>
<clipPath id="clip0_91_371">
<rect width="35" height="35" fill="white"/>
</clipPath>
</defs>
</svg>
