<svg width="35" height="35" viewBox="0 0 35 35" fill="none" xmlns="http://www.w3.org/2000/svg">
<g clip-path="url(#clip0_91_369)">
<path d="M34.3397 15.9413L19.059 0.660563C18.8497 0.451223 18.6013 0.285159 18.3279 0.17186C18.0544 0.0585599 17.7613 0.000244141 17.4654 0.000244141C17.1694 0.000244141 16.8763 0.0585599 16.6029 0.17186C16.3294 0.285159 16.081 0.451223 15.8718 0.660563L12.6999 3.83244L16.7249 7.85744C17.6611 7.52931 18.733 7.75353 19.479 8.49947C19.834 8.85519 20.0819 9.30361 20.1943 9.79351C20.3067 10.2834 20.279 10.795 20.1144 11.2699L23.994 15.1495C24.9324 14.8257 26.0152 15.0346 26.7644 15.786C27.0135 16.0352 27.211 16.3309 27.3458 16.6564C27.4806 16.9819 27.5499 17.3307 27.5498 17.683C27.5498 18.0353 27.4804 18.3841 27.3455 18.7095C27.2106 19.035 27.013 19.3306 26.7639 19.5797C26.5147 19.8288 26.219 20.0263 25.8935 20.1611C25.568 20.2958 25.2192 20.3652 24.8669 20.3651C24.5146 20.3651 24.1658 20.2956 23.8404 20.1608C23.515 20.0259 23.2193 19.8283 22.9702 19.5792C22.1827 18.7917 21.988 17.6323 22.3861 16.6621L18.768 13.044V22.5651C19.0307 22.6951 19.2707 22.8664 19.479 23.0726C19.728 23.3217 19.9256 23.6173 20.0604 23.9427C20.1952 24.2682 20.2645 24.6169 20.2645 24.9692C20.2645 25.3214 20.1952 25.6702 20.0604 25.9956C19.9256 26.321 19.728 26.6167 19.479 26.8657C19.2299 27.1148 18.9342 27.3123 18.6088 27.4471C18.2834 27.5819 17.9346 27.6513 17.5824 27.6513C17.2302 27.6513 16.8814 27.5819 16.556 27.4471C16.2306 27.3123 15.9349 27.1148 15.6858 26.8657C15.4365 26.6168 15.2387 26.3212 15.1037 25.9958C14.9687 25.6703 14.8992 25.3215 14.8992 24.9692C14.8992 24.6168 14.9687 24.268 15.1037 23.9426C15.2387 23.6171 15.4365 23.3215 15.6858 23.0726C15.945 22.8145 16.2327 22.6187 16.5641 22.4874V12.8778C16.2447 12.7465 15.945 12.5529 15.6858 12.2926C15.3092 11.9164 15.0532 11.4367 14.9503 10.9144C14.8475 10.3922 14.9025 9.85111 15.1083 9.36025L11.138 5.39213L0.65989 15.8593C0.450386 16.0686 0.284184 16.3171 0.170787 16.5906C0.0573905 16.8641 -0.000976562 17.1573 -0.000976562 17.4535C-0.000976562 17.7496 0.0573905 18.0428 0.170787 18.3163C0.284184 18.5898 0.450386 18.8383 0.65989 19.0476L15.9418 34.3273C16.151 34.5366 16.3994 34.7027 16.6729 34.816C16.9463 34.9293 17.2394 34.9876 17.5354 34.9876C17.8313 34.9876 18.1244 34.9293 18.3978 34.816C18.6713 34.7027 18.9197 34.5366 19.129 34.3273L34.3397 19.1406C34.5492 18.9313 34.7154 18.6828 34.8288 18.4093C34.9422 18.1357 35.0006 17.8425 35.0006 17.5464C35.0006 17.2503 34.9422 16.9571 34.8288 16.6836C34.7154 16.41 34.5492 16.1615 34.3397 15.9523" fill="#F03C2E"/>
</g>
<defs>
<clipPath id="clip0_91_369">
<rect width="35" height="35" fill="white"/>
</clipPath>
</defs>
</svg>
