<svg width="34" height="32" viewBox="0 0 34 32" fill="none" xmlns="http://www.w3.org/2000/svg">
<path d="M17 19.008C18.6768 19.008 20.0361 17.6487 20.0361 15.9719C20.0361 14.2951 18.6768 12.9358 17 12.9358C15.3232 12.9358 13.9639 14.2951 13.9639 15.9719C13.9639 17.6487 15.3232 19.008 17 19.008Z" fill="#00D8FF"/>
<path fill-rule="evenodd" clip-rule="evenodd" d="M17 9.79883C21.0764 9.79883 24.8633 10.3838 27.7185 11.3667C31.1587 12.5511 33.2739 14.3463 33.2739 15.9719C33.2739 17.6658 31.0322 19.573 27.3379 20.797C24.5449 21.7224 20.8695 22.2054 17 22.2054C13.0327 22.2054 9.27585 21.752 6.45138 20.7868C2.87792 19.5654 0.725586 17.6336 0.725586 15.9719C0.725586 14.3595 2.74514 12.5781 6.13698 11.3956C9.00291 10.3964 12.8833 9.79883 16.9995 9.79883H17Z" stroke="#00D8FF" stroke-width="2"/>
<path fill-rule="evenodd" clip-rule="evenodd" d="M11.6258 12.9031C13.6623 9.37185 16.0607 6.38361 18.3387 4.40122C21.0833 2.01274 23.6951 1.07734 25.1032 1.88934C26.5707 2.73559 27.1029 5.63032 26.3177 9.44199C25.7246 12.3238 24.3064 15.7489 22.3732 19.101C20.3912 22.5378 18.1217 25.5657 15.8748 27.5297C13.0316 30.0152 10.2827 30.9146 8.84327 30.0845C7.44647 29.2795 6.91232 26.6397 7.58239 23.1106C8.14856 20.1287 9.56939 16.4688 11.6251 12.903L11.6258 12.9031Z" stroke="#00D8FF" stroke-width="2"/>
<path fill-rule="evenodd" clip-rule="evenodd" d="M11.6312 19.11C9.58892 15.5828 8.19847 12.0118 7.61808 9.04826C6.91944 5.47758 7.41341 2.74752 8.82025 1.93316C10.2863 1.08443 13.06 2.06897 15.9701 4.65293C18.1704 6.60652 20.4297 9.54519 22.3684 12.8941C24.3562 16.3276 25.8459 19.8061 26.4255 22.7336C27.1588 26.4382 26.5653 29.2688 25.1271 30.1013C23.7317 30.9091 21.1782 30.0538 18.4554 27.7107C16.1549 25.7311 13.6936 22.6723 11.6312 19.1099V19.11Z" stroke="#00D8FF" stroke-width="2"/>
</svg>
